<svg width="26" height="20" viewBox="0 0 26 20" fill="none" xmlns="http://www.w3.org/2000/svg">
<g opacity="0.5">
<path d="M11.9167 4.99996C13.1133 4.99996 14.0833 4.25377 14.0833 3.33329C14.0833 2.41282 13.1133 1.66663 11.9167 1.66663C10.72 1.66663 9.75 2.41282 9.75 3.33329C9.75 4.25377 10.72 4.99996 11.9167 4.99996Z" fill="white"/>
<path d="M19.5 8.33333C20.6966 8.33333 21.6666 7.58714 21.6666 6.66667C21.6666 5.74619 20.6966 5 19.5 5C18.3034 5 17.3333 5.74619 17.3333 6.66667C17.3333 7.58714 18.3034 8.33333 19.5 8.33333Z" fill="white"/>
<path d="M21.6663 14.9998C22.8629 14.9998 23.833 14.2536 23.833 13.3332C23.833 12.4127 22.8629 11.6665 21.6663 11.6665C20.4697 11.6665 19.4996 12.4127 19.4996 13.3332C19.4996 14.2536 20.4697 14.9998 21.6663 14.9998Z" fill="white"/>
<path d="M9.74999 8.33337C10.4613 8.33337 11.1657 8.44115 11.8229 8.65054C12.48 8.85994 13.0772 9.16685 13.5802 9.55376C14.0831 9.94067 14.4821 10.4 14.7543 10.9055C15.0266 11.411 15.1667 11.9529 15.1667 12.5V15.4167C15.1664 16.1138 14.8416 16.7877 14.251 17.3164C13.6605 17.8451 12.8434 18.1937 11.9476 18.299C11.0519 18.4042 10.1367 18.2593 9.36789 17.8903C8.5991 17.5213 8.02751 16.9527 7.75666 16.2875C7.29444 15.1403 6.31944 14.3889 4.83166 14.0334C3.96736 13.8251 3.22851 13.3858 2.7488 12.7948C2.26909 12.2039 2.08023 11.5004 2.21637 10.8116C2.35251 10.1228 2.80468 9.49429 3.49104 9.03972C4.1774 8.58515 5.05262 8.33459 5.95833 8.33337H9.74999Z" fill="#F8F9FB"/>
</g>
</svg>
